G04*
G04 #@! TF.GenerationSoftware,Altium Limited,CircuitMaker,2.1.0 (2.1.0.4)*
G04*
G04 Layer_Physical_Order=1*
G04 Layer_Color=25308*
%FSLAX44Y44*%
%MOMM*%
G71*
G04*
G04 #@! TF.SameCoordinates,92338436-DD38-40F9-96A6-762CB33EEFC5*
G04*
G04*
G04 #@! TF.FilePolarity,Positive*
G04*
G01*
G75*
%ADD11C,0.4000*%
G04:AMPARAMS|DCode=15|XSize=1.8mm|YSize=1.016mm|CornerRadius=0mm|HoleSize=0mm|Usage=FLASHONLY|Rotation=135.000|XOffset=0mm|YOffset=0mm|HoleType=Round|Shape=Rectangle|*
%AMROTATEDRECTD15*
4,1,4,0.9956,-0.2772,0.2772,-0.9956,-0.9956,0.2772,-0.2772,0.9956,0.9956,-0.2772,0.0*
%
%ADD15ROTATEDRECTD15*%

G04:AMPARAMS|DCode=16|XSize=1.8mm|YSize=1.016mm|CornerRadius=0mm|HoleSize=0mm|Usage=FLASHONLY|Rotation=225.000|XOffset=0mm|YOffset=0mm|HoleType=Round|Shape=Rectangle|*
%AMROTATEDRECTD16*
4,1,4,0.2772,0.9956,0.9956,0.2772,-0.2772,-0.9956,-0.9956,-0.2772,0.2772,0.9956,0.0*
%
%ADD16ROTATEDRECTD16*%

%ADD17R,1.8000X1.0160*%
%ADD18R,1.0160X1.8000*%
%ADD19O,0.7000X2.5000*%
%ADD20O,2.2000X0.6000*%
%ADD21R,0.6096X0.7112*%
%ADD41P,0.7071X4X157.5*%
%ADD42P,0.7071X4X247.5*%
G04:AMPARAMS|DCode=43|XSize=0.5mm|YSize=0.5mm|CornerRadius=0mm|HoleSize=0mm|Usage=FLASHONLY|Rotation=67.500|XOffset=0mm|YOffset=0mm|HoleType=Round|Shape=Rectangle|*
%AMROTATEDRECTD43*
4,1,4,0.1353,-0.3266,-0.3266,-0.1353,-0.1353,0.3266,0.3266,0.1353,0.1353,-0.3266,0.0*
%
%ADD43ROTATEDRECTD43*%

%ADD44P,0.7071X4X202.5*%
G04:AMPARAMS|DCode=45|XSize=0.5mm|YSize=0.5mm|CornerRadius=0mm|HoleSize=0mm|Usage=FLASHONLY|Rotation=247.500|XOffset=0mm|YOffset=0mm|HoleType=Round|Shape=Rectangle|*
%AMROTATEDRECTD45*
4,1,4,-0.1353,0.3266,0.3266,0.1353,0.1353,-0.3266,-0.3266,-0.1353,-0.1353,0.3266,0.0*
%
%ADD45ROTATEDRECTD45*%

%ADD46C,1.5240*%
G04:AMPARAMS|DCode=47|XSize=3mm|YSize=2.5mm|CornerRadius=0.625mm|HoleSize=0mm|Usage=FLASHONLY|Rotation=112.500|XOffset=0mm|YOffset=0mm|HoleType=Round|Shape=RoundedRectangle|*
%AMROUNDEDRECTD47*
21,1,3.0000,1.2500,0,0,112.5*
21,1,1.7500,2.5000,0,0,112.5*
1,1,1.2500,0.2426,1.0476*
1,1,1.2500,0.9123,-0.5692*
1,1,1.2500,-0.2426,-1.0476*
1,1,1.2500,-0.9123,0.5692*
%
%ADD47ROUNDEDRECTD47*%
%ADD48C,1.5000*%
%ADD49R,1.5000X1.5000*%
%ADD50O,2.5400X1.6000*%
%ADD51C,2.6162*%
G04:AMPARAMS|DCode=52|XSize=2.54mm|YSize=1.6mm|CornerRadius=0.4mm|HoleSize=0mm|Usage=FLASHONLY|Rotation=180.000|XOffset=0mm|YOffset=0mm|HoleType=Round|Shape=RoundedRectangle|*
%AMROUNDEDRECTD52*
21,1,2.5400,0.8000,0,0,180.0*
21,1,1.7400,1.6000,0,0,180.0*
1,1,0.8000,-0.8700,0.4000*
1,1,0.8000,0.8700,0.4000*
1,1,0.8000,0.8700,-0.4000*
1,1,0.8000,-0.8700,-0.4000*
%
%ADD52ROUNDEDRECTD52*%
G04:AMPARAMS|DCode=53|XSize=3mm|YSize=2.5mm|CornerRadius=0.625mm|HoleSize=0mm|Usage=FLASHONLY|Rotation=202.500|XOffset=0mm|YOffset=0mm|HoleType=Round|Shape=RoundedRectangle|*
%AMROUNDEDRECTD53*
21,1,3.0000,1.2500,0,0,202.5*
21,1,1.7500,2.5000,0,0,202.5*
1,1,1.2500,-1.0476,0.2426*
1,1,1.2500,0.5692,0.9123*
1,1,1.2500,1.0476,-0.2426*
1,1,1.2500,-0.5692,-0.9123*
%
%ADD53ROUNDEDRECTD53*%
G04:AMPARAMS|DCode=54|XSize=3mm|YSize=2.5mm|CornerRadius=0.625mm|HoleSize=0mm|Usage=FLASHONLY|Rotation=67.500|XOffset=0mm|YOffset=0mm|HoleType=Round|Shape=RoundedRectangle|*
%AMROUNDEDRECTD54*
21,1,3.0000,1.2500,0,0,67.5*
21,1,1.7500,2.5000,0,0,67.5*
1,1,1.2500,0.9123,0.5692*
1,1,1.2500,0.2426,-1.0476*
1,1,1.2500,-0.9123,-0.5692*
1,1,1.2500,-0.2426,1.0476*
%
%ADD54ROUNDEDRECTD54*%
G04:AMPARAMS|DCode=55|XSize=3mm|YSize=2.5mm|CornerRadius=0.625mm|HoleSize=0mm|Usage=FLASHONLY|Rotation=157.500|XOffset=0mm|YOffset=0mm|HoleType=Round|Shape=RoundedRectangle|*
%AMROUNDEDRECTD55*
21,1,3.0000,1.2500,0,0,157.5*
21,1,1.7500,2.5000,0,0,157.5*
1,1,1.2500,-0.5692,0.9123*
1,1,1.2500,1.0476,0.2426*
1,1,1.2500,0.5692,-0.9123*
1,1,1.2500,-1.0476,-0.2426*
%
%ADD55ROUNDEDRECTD55*%
%ADD56R,1.5240X1.5240*%
%ADD57C,1.2700*%
D11*
X460664Y405932D02*
Y435217D01*
X446064Y391332D02*
X460664Y405932D01*
X380920Y635817D02*
X460664Y556073D01*
Y492471D02*
Y556073D01*
X467204Y298455D02*
Y560306D01*
X387644Y639866D02*
X467204Y560306D01*
X461844Y293095D02*
X467204Y298455D01*
X473744Y289594D02*
Y576679D01*
X472734Y288584D02*
X473744Y289594D01*
Y576679D02*
X474512Y577447D01*
X396534Y287638D02*
X400312Y283860D01*
X396534Y287638D02*
Y296204D01*
X400312Y280996D02*
Y283860D01*
Y280996D02*
X402884Y278424D01*
X459654Y491461D02*
X460664Y492471D01*
X459654Y482894D02*
Y491461D01*
Y436227D02*
Y444794D01*
Y436227D02*
X460664Y435217D01*
X445124Y482894D02*
X459654D01*
X445124Y444794D02*
X459654D01*
X434634Y307795D02*
Y327954D01*
X432634Y305795D02*
X434634Y307795D01*
X432634Y302586D02*
Y305795D01*
X427522Y297474D02*
X432634Y302586D01*
X443524Y301284D02*
Y326684D01*
X444794Y327954D01*
X455684Y296184D02*
Y334336D01*
X455304Y295804D02*
X455684Y296184D01*
X455304Y294554D02*
Y295804D01*
X449334Y288584D02*
X455304Y294554D01*
X461844Y284073D02*
Y293095D01*
Y284073D02*
X463590Y282327D01*
Y254040D02*
Y282327D01*
X472734Y252770D02*
Y288584D01*
Y252770D02*
X474512Y250992D01*
X517184Y245250D02*
Y277154D01*
X516422Y244488D02*
X517184Y245250D01*
X413774Y284581D02*
Y293603D01*
X409234Y298143D02*
X413774Y293603D01*
X425744Y297474D02*
X427522D01*
X434634Y288584D02*
X449334D01*
X434634Y279694D02*
Y288584D01*
X647740Y364749D02*
Y467146D01*
X36108Y312144D02*
Y336082D01*
X364749Y75379D02*
X410474Y121104D01*
X402694Y211857D02*
X410474Y204077D01*
Y134331D02*
Y204077D01*
X402694Y211857D02*
Y215114D01*
X409234Y258773D02*
X417330Y250677D01*
X417014Y131622D02*
Y206786D01*
X409234Y258773D02*
Y271749D01*
X410474Y121104D02*
Y125082D01*
X410951Y235122D02*
Y235276D01*
Y235122D02*
X411742Y234331D01*
X409234Y214566D02*
Y220949D01*
Y298143D02*
Y321890D01*
X410472Y281279D02*
X413774Y284581D01*
X410472Y272987D02*
Y281279D01*
X409234Y271749D02*
X410472Y272987D01*
X417330Y241655D02*
Y250677D01*
X410951Y235276D02*
X417330Y241655D01*
X411742Y223458D02*
Y234331D01*
X409234Y220949D02*
X411742Y223458D01*
X410474Y125082D02*
X417014Y131622D01*
X406057Y129914D02*
X410474Y134331D01*
X402694Y129914D02*
X406057D01*
X402694Y125738D02*
Y129914D01*
X409234Y214566D02*
X417014Y206786D01*
X393994Y223814D02*
X402694Y215114D01*
X401710Y124754D02*
X402694Y125738D01*
X409234Y321890D02*
X411806Y324462D01*
X592114Y158454D02*
X627593Y193934D01*
X592114Y132114D02*
Y158454D01*
X599734Y156826D02*
X634133Y191225D01*
X599734Y129734D02*
Y156826D01*
X540084Y70084D02*
X599734Y129734D01*
X466134Y130084D02*
X505939D01*
X460034Y136184D02*
X466134Y130084D01*
X505939D02*
X532795Y103228D01*
X443266Y73266D02*
X470084Y100084D01*
X547291Y117724D02*
X572309Y142741D01*
X547291Y98576D02*
Y117724D01*
X540084Y91368D02*
X547291Y98576D01*
X540084Y90084D02*
Y91368D01*
X538800Y90084D02*
X540084D01*
X537448Y88732D02*
X538800Y90084D01*
X521436Y88732D02*
X537448D01*
X510084Y100084D02*
X521436Y88732D01*
X470084Y100084D02*
X510084D01*
X475321Y142741D02*
X572309D01*
X423544Y73266D02*
X443266D01*
X421184Y70906D02*
X423544Y73266D01*
X377484Y70906D02*
X421184D01*
X470101Y71922D02*
X477986D01*
X202182Y608370D02*
X210068D01*
X539333Y70084D02*
X540084D01*
X537518Y68269D02*
X539333Y70084D01*
X527875Y67875D02*
X537518Y68269D01*
X520084Y60084D02*
X527875Y67875D01*
X534809Y74809D02*
X592114Y132114D01*
X477986Y72487D02*
X534809Y74809D01*
X493744Y60084D02*
X520084D01*
X459175Y52575D02*
X486234D01*
X440040Y33440D02*
X459175Y52575D01*
X486234D02*
X493744Y60084D01*
X477986Y71922D02*
Y72487D01*
X431792Y621635D02*
X437765D01*
X434498Y620282D02*
X437765Y621635D01*
X242404Y58532D02*
X248376D01*
X72487Y477986D02*
X80084Y470390D01*
Y335858D02*
Y470390D01*
Y335858D02*
X145139Y270804D01*
X35600Y368024D02*
Y380278D01*
X72487Y202182D02*
X87883D01*
X75193Y208715D02*
X81350D01*
X87883Y202182D01*
X608370Y470101D02*
Y477986D01*
X604975Y471453D02*
X608242Y470101D01*
X604975Y471453D02*
X604975D01*
X621635Y242403D02*
Y248376D01*
X620282Y245670D02*
Y245670D01*
Y245670D02*
X621635Y242403D01*
X58533Y431792D02*
Y437764D01*
X208066Y72487D02*
Y123484D01*
X600084Y320145D02*
X607576Y312653D01*
X600084Y320145D02*
Y456382D01*
X607576Y303631D02*
Y312653D01*
X603226Y299281D02*
X607576Y303631D01*
X603226Y256098D02*
Y299281D01*
Y256098D02*
X613655Y245670D01*
X481052Y575414D02*
X600084Y456382D01*
X450084Y611882D02*
X470702Y632500D01*
X450084Y601875D02*
Y611882D01*
Y601875D02*
X474512Y577447D01*
X570270Y561888D02*
X600084Y532074D01*
Y514802D02*
Y532074D01*
Y514802D02*
X647740Y467146D01*
X471453Y75193D02*
Y75193D01*
X470101Y71927D02*
X471453Y75193D01*
X364749Y50084D02*
Y58171D01*
Y36334D02*
Y50084D01*
X404987D02*
X421631Y33440D01*
X364749Y50084D02*
X404987D01*
X421631Y33440D02*
X440040D01*
X625344Y214593D02*
X646470Y235719D01*
X634133Y214133D02*
X660084Y240084D01*
X634133Y191225D02*
Y214133D01*
X625344Y214593D02*
Y214593D01*
Y214593D02*
X627593Y212343D01*
Y193934D02*
Y212343D01*
X646470Y258795D02*
Y262930D01*
Y258795D02*
X646728Y258537D01*
Y240128D02*
Y258537D01*
X646470Y239870D02*
X646728Y240128D01*
X646470Y235719D02*
Y239870D01*
X660084Y240084D02*
Y348499D01*
X643834Y364749D02*
X660084Y348499D01*
X626815Y282585D02*
X646470Y262930D01*
X371320Y175554D02*
X394934D01*
X368658D02*
X371320D01*
X36108Y312144D02*
X72684D01*
X374500Y150154D02*
X394934D01*
X365832D02*
X374500D01*
X364749Y58171D02*
Y75379D01*
Y140403D01*
X419744Y467681D02*
Y502864D01*
X638596Y308869D02*
Y341924D01*
X435142Y508294D02*
Y525566D01*
X380611Y430654D02*
X391124D01*
X388010Y329224D02*
X391454D01*
X371320D02*
X388010D01*
X620282Y245670D02*
X620282Y245670D01*
X58533Y437764D02*
X59886Y434498D01*
X59886Y434498D01*
X434498Y620282D02*
X434498Y620282D01*
X471453Y75193D02*
X471453Y75193D01*
X604975Y471453D02*
X604975Y471453D01*
X239816Y478576D02*
X247944D01*
X342686Y27218D02*
Y155674D01*
X255310Y650280D02*
X296458D01*
X221782D02*
X255310D01*
X35600Y380278D02*
Y412282D01*
X551474Y172506D02*
Y271704D01*
X107482Y505043D02*
X141721Y539282D01*
X107482Y333796D02*
Y505043D01*
Y333796D02*
X119674Y321604D01*
X142741Y96099D02*
Y107859D01*
Y96099D02*
X196128Y42712D01*
X214416D01*
X224576Y32552D01*
X271058D01*
X287568Y16042D01*
X364749D01*
Y36334D01*
X365832Y172728D02*
X368658Y175554D01*
X365832Y150154D02*
Y172728D01*
X365800Y181074D02*
X371320Y175554D01*
X342624Y181074D02*
X365800D01*
X419744Y502864D02*
Y575309D01*
Y502864D02*
X427014Y495594D01*
X445124D01*
X402884Y381294D02*
X413204D01*
Y461141D01*
X419744Y467681D01*
X371299Y623754D02*
X419744Y575309D01*
X371299Y623754D02*
Y643834D01*
X446064Y367324D02*
Y380024D01*
Y367324D02*
X453430Y359958D01*
X638596Y308869D02*
X643834D01*
X446064Y380024D02*
Y391332D01*
X404154Y228894D02*
Y243880D01*
X406440Y246166D01*
X525566Y175300D02*
Y225846D01*
Y175300D02*
X541314Y159552D01*
X562396D01*
X166651Y147373D02*
X197144Y116880D01*
X103228Y147373D02*
X166651D01*
X286552Y266486D02*
Y373420D01*
Y266486D02*
X307634Y245404D01*
X402122Y395264D02*
Y406440D01*
X392724Y385866D02*
X402122Y395264D01*
X392724Y381294D02*
Y385866D01*
X435142Y508294D02*
X445124D01*
X431840Y124754D02*
X448934D01*
X431840Y107990D02*
Y124754D01*
X374944Y508294D02*
X391124D01*
X344242Y538996D02*
X374944Y508294D01*
X303348Y538996D02*
X344242D01*
X303348Y509278D02*
Y538996D01*
Y509278D02*
X314492Y498134D01*
Y463336D02*
Y498134D01*
X290726Y439570D02*
X314492Y463336D01*
X272391Y439570D02*
X290726D01*
X272391Y393931D02*
Y439570D01*
Y393931D02*
X279727Y386595D01*
X297442D01*
Y364619D02*
Y386595D01*
X295442Y362619D02*
X297442Y364619D01*
X295442Y282964D02*
Y362619D01*
Y282964D02*
X319504D01*
X319794Y282674D01*
X342624D01*
X391124Y470194D02*
X403836D01*
X413204Y479562D01*
Y520834D01*
X407202Y526836D02*
X413204Y520834D01*
X167426Y333796D02*
Y525312D01*
X155234Y321604D02*
X167426Y333796D01*
X53353Y347285D02*
Y431792D01*
Y347285D02*
X155234Y245404D01*
X140756D02*
X155234D01*
X140756Y238546D02*
Y245404D01*
X136438Y234228D02*
X140756Y238546D01*
X136438Y167934D02*
Y234228D01*
Y167934D02*
X147360Y157012D01*
X174538D01*
X208066Y123484D01*
X202182Y72487D02*
X208066D01*
X145139Y270804D02*
X155234D01*
X626815Y282585D02*
Y431792D01*
X371134Y200954D02*
X394934D01*
X359958Y212130D02*
X371134Y200954D01*
X359958Y212130D02*
Y257274D01*
X342624D02*
X359958D01*
X367070Y333474D02*
X371320Y329224D01*
X342624Y333474D02*
X367070D01*
X391124Y430654D02*
Y432094D01*
X380611Y400407D02*
Y430654D01*
X377850Y397646D02*
X380611Y400407D01*
X377850Y339384D02*
Y397646D01*
Y339384D02*
X388010Y329224D01*
X445124Y415660D02*
Y432094D01*
X435904Y406440D02*
X445124Y415660D01*
X435904Y380024D02*
Y406440D01*
X183174Y415584D02*
X215686Y448096D01*
X183174Y319318D02*
Y415584D01*
Y319318D02*
X194096Y308396D01*
X551474Y320704D02*
Y360720D01*
X544616Y367578D02*
X551474Y360720D01*
X544616Y367578D02*
Y420156D01*
X557824Y433364D01*
X308869Y36334D02*
Y127583D01*
X246928Y189524D02*
X308869Y127583D01*
X246928Y189524D02*
Y327651D01*
X283504Y426760D02*
X291632D01*
X312714Y447842D01*
X359450D01*
X362498Y444794D01*
X391124D01*
X375452Y482894D02*
X391124D01*
X375452Y457494D02*
Y482894D01*
Y457494D02*
X391124D01*
X106851Y107859D02*
X142741D01*
X79796Y134914D02*
X106851Y107859D01*
X79796Y134914D02*
Y175300D01*
X94528Y190032D01*
Y290300D01*
X72684Y312144D02*
X94528Y290300D01*
X36084Y312144D02*
X36108D01*
X19598Y352592D02*
X36108Y336082D01*
X19598Y352592D02*
Y433872D01*
X38902Y453176D01*
Y473750D01*
X81828Y516676D01*
X100327D01*
Y530327D01*
X342624Y155674D02*
X342686D01*
X338114Y22646D02*
X342686Y27218D01*
X296712Y22646D02*
X338114D01*
X296712D02*
Y61762D01*
X176570Y181904D02*
X296712Y61762D01*
X143042Y181904D02*
X176570D01*
X143042D02*
Y225084D01*
X151170Y233212D01*
X167426D01*
Y275884D01*
X160314Y282996D02*
X167426Y275884D01*
X148884Y282996D02*
X160314D01*
X137200Y294680D02*
X148884Y282996D01*
X137200Y294680D02*
Y329478D01*
X119674Y347004D02*
X137200Y329478D01*
X375706Y116880D02*
Y129834D01*
X383326Y137454D01*
X394934D01*
X467400Y243880D02*
X474512Y250992D01*
X467400Y237022D02*
Y243880D01*
X438952Y208574D02*
X467400Y237022D01*
X433394Y208574D02*
X438952D01*
X433394Y191272D02*
Y208574D01*
Y191272D02*
X436412Y188254D01*
X448934D01*
X139841Y569841D02*
Y596025D01*
X168188Y624372D02*
X195874D01*
X221782Y650280D01*
X255310D02*
X273852Y631738D01*
Y454110D02*
Y631738D01*
X265851Y446110D02*
X273852Y454110D01*
X265851Y244007D02*
Y446110D01*
Y244007D02*
X302554Y207304D01*
X317540D01*
X331002Y193842D01*
X357926D01*
X363514Y188254D01*
X394934D01*
X613655Y245670D02*
X620282D01*
X481052Y575414D02*
Y580921D01*
X477986Y583987D02*
X481052Y580921D01*
X477986Y583987D02*
Y607681D01*
X541060Y532795D02*
X576940D01*
X499658Y574197D02*
X541060Y532795D01*
X499658Y574197D02*
Y618784D01*
X485942Y632500D02*
X499658Y618784D01*
X470702Y632500D02*
X485942D01*
X380920Y635817D02*
Y657375D01*
X315419D02*
X380920D01*
X315419Y643834D02*
Y657375D01*
X447334Y230164D02*
Y237784D01*
X463590Y254040D01*
X387644Y639866D02*
Y663996D01*
X310174D02*
X387644D01*
X296458Y650280D02*
X310174Y663996D01*
X139841Y596025D02*
X168188Y624372D01*
X247944Y478576D02*
Y486704D01*
X239816Y426252D02*
Y478576D01*
X230323Y416759D02*
X239816Y426252D01*
X230323Y361831D02*
Y416759D01*
Y361831D02*
X257850Y334304D01*
Y193266D02*
Y334304D01*
Y193266D02*
X295442Y155674D01*
X342624D01*
X376722Y162854D02*
X394934D01*
X281472Y252516D02*
X301284Y232704D01*
X327192D01*
X328022Y231874D01*
X342624D01*
X435904Y360974D02*
Y380024D01*
X411806Y324462D02*
Y347766D01*
X422950Y358910D01*
Y454446D01*
X425998Y457494D01*
X445124D01*
X364749Y58171D02*
X377484Y70906D01*
X393994Y223814D02*
Y228894D01*
X394934Y124754D02*
X401710D01*
X596686Y230672D02*
Y308142D01*
X448934Y150154D02*
X467908D01*
X475321Y142741D01*
X495024Y231874D02*
X509274D01*
X514773Y237374D01*
X525663D01*
X538774Y250484D01*
Y271704D01*
X444794Y265724D02*
Y279694D01*
X434634Y265724D02*
X444794D01*
X426854Y257944D02*
X434634Y265724D01*
X426854Y145234D02*
Y257944D01*
Y145234D02*
X434634Y137454D01*
X448934D01*
X437174Y230164D02*
Y247690D01*
X444286Y254802D01*
X448934Y200954D02*
Y205094D01*
X476289Y232449D01*
Y242805D01*
X477972Y244488D01*
X516422D01*
X247944Y406694D02*
Y447190D01*
X266740Y465986D01*
Y507278D01*
X222544Y551474D02*
X266740Y507278D01*
X246066Y625858D02*
X248376Y626815D01*
X246066Y618022D02*
Y625858D01*
X245944Y618022D02*
X246066D01*
X210384Y582462D02*
X245944Y618022D01*
X210384Y539282D02*
Y582462D01*
Y539282D02*
X215432D01*
X230323Y524392D01*
Y437395D02*
Y524392D01*
X223783Y430855D02*
X230323Y437395D01*
X223783Y263153D02*
Y430855D01*
X155234Y194604D02*
X223783Y263153D01*
X364749Y140403D02*
X374500Y150154D01*
X366562Y495594D02*
X391124D01*
X363514Y498642D02*
X366562Y495594D01*
X331002Y498642D02*
X363514D01*
X314238Y515406D02*
X331002Y498642D01*
X314238Y515406D02*
Y528106D01*
X35600Y368024D02*
X36084D01*
X401614Y329224D02*
Y355942D01*
X384390Y373166D02*
X401614Y355942D01*
X384390Y373166D02*
Y389422D01*
X391232Y396264D01*
Y412028D01*
X406664Y427460D01*
Y444794D01*
X391124D02*
X406664D01*
X537427Y561888D02*
Y572309D01*
Y561888D02*
X570270D01*
X643834Y364749D02*
X647740D01*
X155234Y220004D02*
X161439Y226209D01*
X174429D01*
Y513604D01*
X202182Y541356D01*
Y607681D01*
X286044Y495594D02*
Y552744D01*
Y495594D02*
X294934Y486704D01*
X315419Y594724D02*
Y643834D01*
Y594724D02*
X394229Y515914D01*
X406664D01*
Y482894D02*
Y515914D01*
X391124Y482894D02*
X406664D01*
X447334Y342686D02*
X455684Y334336D01*
X430062Y342686D02*
X447334D01*
X422696Y335320D02*
X430062Y342686D01*
X342624Y308074D02*
X342754D01*
X393994Y256834D01*
Y228894D02*
Y256834D01*
X325160Y409674D02*
X342624D01*
X325160Y320842D02*
Y409674D01*
Y320842D02*
X353354D01*
X383834Y290362D01*
Y278424D02*
Y290362D01*
Y278424D02*
X392724D01*
X576874Y271704D02*
Y288584D01*
X569254Y296204D02*
X576874Y288584D01*
X536996Y296204D02*
X569254D01*
X512358Y320842D02*
X536996Y296204D01*
X512358Y320842D02*
Y460474D01*
X495024D02*
X512358D01*
X242404Y58532D02*
X245670Y59885D01*
X248376Y53353D02*
Y58532D01*
X621635Y248376D02*
X626815D01*
X608242Y470101D02*
X608370D01*
X607681Y477986D02*
X608370D01*
X208715Y604975D02*
X210068Y608242D01*
Y608370D01*
X202182Y607681D02*
Y608370D01*
X470101Y71922D02*
Y71927D01*
X431792Y621635D02*
Y626815D01*
X53353Y431792D02*
X58533D01*
X551474Y271704D02*
X564174D01*
X538774D02*
X551474D01*
X445124Y457494D02*
Y470194D01*
Y482894D01*
X448934Y162854D02*
Y175554D01*
Y150154D02*
Y162854D01*
X538774Y320704D02*
X551474D01*
X564174D01*
X576874D01*
D15*
X139841Y569841D02*
D03*
X100327Y530327D02*
D03*
X572309Y142741D02*
D03*
X532795Y103228D02*
D03*
D16*
X142741Y107859D02*
D03*
X103228Y147373D02*
D03*
X537427Y572309D02*
D03*
X576940Y532795D02*
D03*
D17*
X36084Y312144D02*
D03*
Y368024D02*
D03*
X643834Y364749D02*
D03*
Y308869D02*
D03*
D18*
X364749Y36334D02*
D03*
X308869D02*
D03*
X315419Y643834D02*
D03*
X371299D02*
D03*
D19*
X564174Y271704D02*
D03*
X538774D02*
D03*
X551474D02*
D03*
X576874D02*
D03*
X538774Y320704D02*
D03*
X551474D02*
D03*
X564174D02*
D03*
X576874D02*
D03*
D20*
X448934Y124754D02*
D03*
Y137454D02*
D03*
Y150154D02*
D03*
Y162854D02*
D03*
Y175554D02*
D03*
Y188254D02*
D03*
Y200954D02*
D03*
X394934Y124754D02*
D03*
Y137454D02*
D03*
Y150154D02*
D03*
Y162854D02*
D03*
Y175554D02*
D03*
Y188254D02*
D03*
Y200954D02*
D03*
X391124Y508294D02*
D03*
Y495594D02*
D03*
Y482894D02*
D03*
Y470194D02*
D03*
Y457494D02*
D03*
Y444794D02*
D03*
Y432094D02*
D03*
X445124Y508294D02*
D03*
Y495594D02*
D03*
Y482894D02*
D03*
Y470194D02*
D03*
Y457494D02*
D03*
Y444794D02*
D03*
Y432094D02*
D03*
D21*
X393994Y228894D02*
D03*
X404154D02*
D03*
X391454Y329224D02*
D03*
X401614D02*
D03*
X392724Y381294D02*
D03*
X402884D02*
D03*
X392724Y278424D02*
D03*
X402884D02*
D03*
X437174Y230164D02*
D03*
X447334D02*
D03*
X434634Y327954D02*
D03*
X444794D02*
D03*
X435904Y380024D02*
D03*
X446064D02*
D03*
X434634Y279694D02*
D03*
X444794D02*
D03*
D41*
X71927Y210068D02*
D03*
X608241Y470100D02*
D03*
D42*
X470100Y71927D02*
D03*
X210068Y608241D02*
D03*
D43*
X58533Y437764D02*
D03*
D44*
X242404Y58532D02*
D03*
X437765Y621635D02*
D03*
D45*
X621636Y242404D02*
D03*
D46*
X557824Y433364D02*
D03*
Y407964D02*
D03*
X155234Y347004D02*
D03*
X247944Y551474D02*
D03*
X155234Y296204D02*
D03*
X307634Y347004D02*
D03*
Y321604D02*
D03*
Y296204D02*
D03*
Y270804D02*
D03*
Y245404D02*
D03*
Y220004D02*
D03*
Y194604D02*
D03*
Y169204D02*
D03*
X155234D02*
D03*
Y194604D02*
D03*
Y220004D02*
D03*
Y245404D02*
D03*
Y270804D02*
D03*
Y321604D02*
D03*
X311444Y552744D02*
D03*
D47*
X72487Y202182D02*
D03*
X53353Y248376D02*
D03*
X626815Y431792D02*
D03*
X607681Y477986D02*
D03*
D48*
X119674Y347004D02*
D03*
Y372404D02*
D03*
D49*
Y321604D02*
D03*
D50*
X342624Y155674D02*
D03*
X495024Y231874D02*
D03*
Y181074D02*
D03*
Y206474D02*
D03*
Y257274D02*
D03*
Y282674D02*
D03*
Y308074D02*
D03*
Y333474D02*
D03*
Y358874D02*
D03*
Y384274D02*
D03*
Y409674D02*
D03*
Y435074D02*
D03*
Y460474D02*
D03*
Y485874D02*
D03*
Y511274D02*
D03*
X342624D02*
D03*
Y485874D02*
D03*
Y460474D02*
D03*
Y435074D02*
D03*
Y409674D02*
D03*
Y384274D02*
D03*
Y358874D02*
D03*
Y333474D02*
D03*
Y308074D02*
D03*
Y282674D02*
D03*
Y257274D02*
D03*
Y231874D02*
D03*
Y206474D02*
D03*
Y181074D02*
D03*
D51*
X247944Y486704D02*
D03*
X200954D02*
D03*
X294934D02*
D03*
Y406694D02*
D03*
X247944D02*
D03*
X200954D02*
D03*
D52*
X495024Y155674D02*
D03*
D53*
X477986Y72487D02*
D03*
X431792Y53353D02*
D03*
X248376Y626815D02*
D03*
X202182Y607681D02*
D03*
D54*
X72487Y477986D02*
D03*
X53353Y431792D02*
D03*
X607681Y202182D02*
D03*
X626815Y248376D02*
D03*
D55*
X202182Y72487D02*
D03*
X248376Y53353D02*
D03*
X477986Y607681D02*
D03*
X431792Y626815D02*
D03*
D56*
X286044Y552744D02*
D03*
X222544Y551474D02*
D03*
D57*
X443524Y301284D02*
D03*
X472734Y288584D02*
D03*
X517184Y277154D02*
D03*
X396534Y296204D02*
D03*
X425744Y297474D02*
D03*
X551474Y172506D02*
D03*
X141721Y539282D02*
D03*
X453430Y359958D02*
D03*
X638596Y341924D02*
D03*
X406440Y246166D02*
D03*
X525566Y225846D02*
D03*
X562396Y159552D02*
D03*
X197144Y116880D02*
D03*
X286552Y373420D02*
D03*
X402122Y406440D02*
D03*
X435142Y525566D02*
D03*
X431840Y107990D02*
D03*
X407202Y526836D02*
D03*
X167426Y525312D02*
D03*
X35600Y380278D02*
D03*
X215686Y448096D02*
D03*
X194096Y308396D02*
D03*
X246928Y327651D02*
D03*
X283504Y426760D02*
D03*
X375706Y116880D02*
D03*
X376722Y162854D02*
D03*
X281472Y252516D02*
D03*
X435904Y360974D02*
D03*
X596686Y230672D02*
D03*
Y308142D02*
D03*
X444286Y254802D02*
D03*
X314238Y528106D02*
D03*
X35600Y412282D02*
D03*
X422696Y335320D02*
D03*
M02*
