G04*
G04 #@! TF.GenerationSoftware,Altium Limited,CircuitMaker,2.1.0 (2.1.0.4)*
G04*
G04 Layer_Color=7318015*
%FSLAX44Y44*%
%MOMM*%
G71*
G04*
G04 #@! TF.SameCoordinates,92338436-DD38-40F9-96A6-762CB33EEFC5*
G04*
G04*
G04 #@! TF.FilePolarity,Positive*
G04*
G01*
G75*
G04:AMPARAMS|DCode=15|XSize=1.8mm|YSize=1.016mm|CornerRadius=0mm|HoleSize=0mm|Usage=FLASHONLY|Rotation=135.000|XOffset=0mm|YOffset=0mm|HoleType=Round|Shape=Rectangle|*
%AMROTATEDRECTD15*
4,1,4,0.9956,-0.2772,0.2772,-0.9956,-0.9956,0.2772,-0.2772,0.9956,0.9956,-0.2772,0.0*
%
%ADD15ROTATEDRECTD15*%

G04:AMPARAMS|DCode=16|XSize=1.8mm|YSize=1.016mm|CornerRadius=0mm|HoleSize=0mm|Usage=FLASHONLY|Rotation=225.000|XOffset=0mm|YOffset=0mm|HoleType=Round|Shape=Rectangle|*
%AMROTATEDRECTD16*
4,1,4,0.2772,0.9956,0.9956,0.2772,-0.2772,-0.9956,-0.9956,-0.2772,0.2772,0.9956,0.0*
%
%ADD16ROTATEDRECTD16*%

%ADD17R,1.8000X1.0160*%
%ADD18R,1.0160X1.8000*%
%ADD19O,0.7000X2.5000*%
%ADD20O,2.2000X0.6000*%
%ADD21R,0.6096X0.7112*%
D15*
X139841Y569841D02*
D03*
X100327Y530327D02*
D03*
X572309Y142741D02*
D03*
X532795Y103228D02*
D03*
D16*
X142741Y107859D02*
D03*
X103228Y147373D02*
D03*
X537427Y572309D02*
D03*
X576940Y532795D02*
D03*
D17*
X36084Y312144D02*
D03*
Y368024D02*
D03*
X643834Y364749D02*
D03*
Y308869D02*
D03*
D18*
X364749Y36334D02*
D03*
X308869D02*
D03*
X315419Y643834D02*
D03*
X371299D02*
D03*
D19*
X564174Y271704D02*
D03*
X538774D02*
D03*
X551474D02*
D03*
X576874D02*
D03*
X538774Y320704D02*
D03*
X551474D02*
D03*
X564174D02*
D03*
X576874D02*
D03*
D20*
X448934Y124754D02*
D03*
Y137454D02*
D03*
Y150154D02*
D03*
Y162854D02*
D03*
Y175554D02*
D03*
Y188254D02*
D03*
Y200954D02*
D03*
X394934Y124754D02*
D03*
Y137454D02*
D03*
Y150154D02*
D03*
Y162854D02*
D03*
Y175554D02*
D03*
Y188254D02*
D03*
Y200954D02*
D03*
X391124Y508294D02*
D03*
Y495594D02*
D03*
Y482894D02*
D03*
Y470194D02*
D03*
Y457494D02*
D03*
Y444794D02*
D03*
Y432094D02*
D03*
X445124Y508294D02*
D03*
Y495594D02*
D03*
Y482894D02*
D03*
Y470194D02*
D03*
Y457494D02*
D03*
Y444794D02*
D03*
Y432094D02*
D03*
D21*
X393994Y228894D02*
D03*
X404154D02*
D03*
X391454Y329224D02*
D03*
X401614D02*
D03*
X392724Y381294D02*
D03*
X402884D02*
D03*
X392724Y278424D02*
D03*
X402884D02*
D03*
X437174Y230164D02*
D03*
X447334D02*
D03*
X434634Y327954D02*
D03*
X444794D02*
D03*
X435904Y380024D02*
D03*
X446064D02*
D03*
X434634Y279694D02*
D03*
X444794D02*
D03*
M02*
