G04*
G04 #@! TF.GenerationSoftware,Altium Limited,CircuitMaker,2.1.0 (2.1.0.4)*
G04*
G04 Layer_Color=2752767*
%FSLAX44Y44*%
%MOMM*%
G71*
G04*
G04 #@! TF.SameCoordinates,92338436-DD38-40F9-96A6-762CB33EEFC5*
G04*
G04*
G04 #@! TF.FilePolarity,Positive*
G04*
G01*
G75*
%ADD60C,0.0508*%
%ADD61C,0.0677*%
D60*
X555792Y431332D02*
Y435396D01*
X559856D01*
Y431332D01*
X555792D01*
Y405932D02*
Y409996D01*
X559856D01*
Y405932D01*
X555792D01*
X119674Y344972D02*
X117642Y349036D01*
X121706D01*
X119674Y344972D01*
Y370372D02*
X117642Y374436D01*
X121706D01*
X119674Y370372D01*
Y319572D02*
X117642Y323636D01*
X121706D01*
X119674Y319572D01*
X340592Y153642D02*
Y157706D01*
X344656D01*
Y153642D01*
X340592D01*
X247944Y484672D02*
X248960Y485688D01*
X249976D01*
X248960Y486704D01*
X249976Y487720D01*
X248960D01*
X247944Y488736D01*
X246928Y487720D01*
X245912D01*
X246928Y486704D01*
X245912Y485688D01*
X246928D01*
X247944Y484672D01*
X153202Y344972D02*
X154218Y347004D01*
X153202Y349036D01*
X155234Y348020D01*
X157266Y349036D01*
X156250Y347004D01*
X157266Y344972D01*
X155234Y345988D01*
X153202Y344972D01*
X492992Y229842D02*
Y233906D01*
X497056D01*
Y229842D01*
X492992D01*
X245912Y549442D02*
Y553506D01*
X249976D01*
Y549442D01*
X245912D01*
X153202Y294172D02*
X154218Y296204D01*
X153202Y298236D01*
X155234Y297220D01*
X157266Y298236D01*
X156250Y296204D01*
X157266Y294172D01*
X155234Y295188D01*
X153202Y294172D01*
X492992Y179042D02*
Y183106D01*
X497056D01*
Y179042D01*
X492992D01*
Y153642D02*
Y157706D01*
X497056D01*
Y153642D01*
X492992D01*
Y204442D02*
Y208506D01*
X497056D01*
Y204442D01*
X492992D01*
Y255242D02*
Y259306D01*
X497056D01*
Y255242D01*
X492992D01*
Y280642D02*
Y284706D01*
X497056D01*
Y280642D01*
X492992D01*
Y306042D02*
Y310106D01*
X497056D01*
Y306042D01*
X492992D01*
Y331442D02*
Y335506D01*
X497056D01*
Y331442D01*
X492992D01*
Y356842D02*
Y360906D01*
X497056D01*
Y356842D01*
X492992D01*
Y382242D02*
Y386306D01*
X497056D01*
Y382242D01*
X492992D01*
Y407642D02*
Y411706D01*
X497056D01*
Y407642D01*
X492992D01*
Y433042D02*
Y437106D01*
X497056D01*
Y433042D01*
X492992D01*
Y458442D02*
Y462506D01*
X497056D01*
Y458442D01*
X492992D01*
Y483842D02*
Y487906D01*
X497056D01*
Y483842D01*
X492992D01*
Y509242D02*
Y513306D01*
X497056D01*
Y509242D01*
X492992D01*
X340592D02*
Y513306D01*
X344656D01*
Y509242D01*
X340592D01*
Y483842D02*
Y487906D01*
X344656D01*
Y483842D01*
X340592D01*
Y458442D02*
Y462506D01*
X344656D01*
Y458442D01*
X340592D01*
Y433042D02*
Y437106D01*
X344656D01*
Y433042D01*
X340592D01*
Y407642D02*
Y411706D01*
X344656D01*
Y407642D01*
X340592D01*
Y382242D02*
Y386306D01*
X344656D01*
Y382242D01*
X340592D01*
Y356842D02*
Y360906D01*
X344656D01*
Y356842D01*
X340592D01*
Y331442D02*
Y335506D01*
X344656D01*
Y331442D01*
X340592D01*
Y306042D02*
Y310106D01*
X344656D01*
Y306042D01*
X340592D01*
Y280642D02*
Y284706D01*
X344656D01*
Y280642D01*
X340592D01*
Y255242D02*
Y259306D01*
X344656D01*
Y255242D01*
X340592D01*
Y229842D02*
Y233906D01*
X344656D01*
Y229842D01*
X340592D01*
Y204442D02*
Y208506D01*
X344656D01*
Y204442D01*
X340592D01*
Y179042D02*
Y183106D01*
X344656D01*
Y179042D01*
X340592D01*
X200954Y484672D02*
X201970Y485688D01*
X202986D01*
X201970Y486704D01*
X202986Y487720D01*
X201970D01*
X200954Y488736D01*
X199938Y487720D01*
X198922D01*
X199938Y486704D01*
X198922Y485688D01*
X199938D01*
X200954Y484672D01*
X294934D02*
X295950Y485688D01*
X296966D01*
X295950Y486704D01*
X296966Y487720D01*
X295950D01*
X294934Y488736D01*
X293918Y487720D01*
X292902D01*
X293918Y486704D01*
X292902Y485688D01*
X293918D01*
X294934Y484672D01*
Y404662D02*
X295950Y405678D01*
X296966D01*
X295950Y406694D01*
X296966Y407710D01*
X295950D01*
X294934Y408726D01*
X293918Y407710D01*
X292902D01*
X293918Y406694D01*
X292902Y405678D01*
X293918D01*
X294934Y404662D01*
X247944D02*
X248960Y405678D01*
X249976D01*
X248960Y406694D01*
X249976Y407710D01*
X248960D01*
X247944Y408726D01*
X246928Y407710D01*
X245912D01*
X246928Y406694D01*
X245912Y405678D01*
X246928D01*
X247944Y404662D01*
X200954D02*
X201970Y405678D01*
X202986D01*
X201970Y406694D01*
X202986Y407710D01*
X201970D01*
X200954Y408726D01*
X199938Y407710D01*
X198922D01*
X199938Y406694D01*
X198922Y405678D01*
X199938D01*
X200954Y404662D01*
X305602Y344972D02*
X306618Y347004D01*
X305602Y349036D01*
X307634Y348020D01*
X309666Y349036D01*
X308650Y347004D01*
X309666Y344972D01*
X307634Y345988D01*
X305602Y344972D01*
Y319572D02*
X306618Y321604D01*
X305602Y323636D01*
X307634Y322620D01*
X309666Y323636D01*
X308650Y321604D01*
X309666Y319572D01*
X307634Y320588D01*
X305602Y319572D01*
Y294172D02*
X306618Y296204D01*
X305602Y298236D01*
X307634Y297220D01*
X309666Y298236D01*
X308650Y296204D01*
X309666Y294172D01*
X307634Y295188D01*
X305602Y294172D01*
Y268772D02*
X306618Y270804D01*
X305602Y272836D01*
X307634Y271820D01*
X309666Y272836D01*
X308650Y270804D01*
X309666Y268772D01*
X307634Y269788D01*
X305602Y268772D01*
Y243372D02*
X306618Y245404D01*
X305602Y247436D01*
X307634Y246420D01*
X309666Y247436D01*
X308650Y245404D01*
X309666Y243372D01*
X307634Y244388D01*
X305602Y243372D01*
Y217972D02*
X306618Y220004D01*
X305602Y222036D01*
X307634Y221020D01*
X309666Y222036D01*
X308650Y220004D01*
X309666Y217972D01*
X307634Y218988D01*
X305602Y217972D01*
Y192572D02*
X306618Y194604D01*
X305602Y196636D01*
X307634Y195620D01*
X309666Y196636D01*
X308650Y194604D01*
X309666Y192572D01*
X307634Y193588D01*
X305602Y192572D01*
Y167172D02*
X306618Y169204D01*
X305602Y171236D01*
X307634Y170220D01*
X309666Y171236D01*
X308650Y169204D01*
X309666Y167172D01*
X307634Y168188D01*
X305602Y167172D01*
X153202D02*
X154218Y169204D01*
X153202Y171236D01*
X155234Y170220D01*
X157266Y171236D01*
X156250Y169204D01*
X157266Y167172D01*
X155234Y168188D01*
X153202Y167172D01*
Y192572D02*
X154218Y194604D01*
X153202Y196636D01*
X155234Y195620D01*
X157266Y196636D01*
X156250Y194604D01*
X157266Y192572D01*
X155234Y193588D01*
X153202Y192572D01*
Y217972D02*
X154218Y220004D01*
X153202Y222036D01*
X155234Y221020D01*
X157266Y222036D01*
X156250Y220004D01*
X157266Y217972D01*
X155234Y218988D01*
X153202Y217972D01*
Y243372D02*
X154218Y245404D01*
X153202Y247436D01*
X155234Y246420D01*
X157266Y247436D01*
X156250Y245404D01*
X157266Y243372D01*
X155234Y244388D01*
X153202Y243372D01*
Y268772D02*
X154218Y270804D01*
X153202Y272836D01*
X155234Y271820D01*
X157266Y272836D01*
X156250Y270804D01*
X157266Y268772D01*
X155234Y269788D01*
X153202Y268772D01*
Y319572D02*
X154218Y321604D01*
X153202Y323636D01*
X155234Y322620D01*
X157266Y323636D01*
X156250Y321604D01*
X157266Y319572D01*
X155234Y320588D01*
X153202Y319572D01*
X309412Y550712D02*
Y554776D01*
X313476D01*
Y550712D01*
X309412D01*
X284012D02*
Y554776D01*
X288076D01*
Y550712D01*
X284012D01*
X220512Y549442D02*
Y553506D01*
X224576D01*
Y549442D01*
X220512D01*
X442508Y300268D02*
Y299252D01*
X444540D01*
Y300268D01*
X445556D01*
Y302300D01*
X444540D01*
Y303316D01*
X442508D01*
Y302300D01*
X441492D01*
Y300268D01*
X442508D01*
X471718Y287568D02*
Y286552D01*
X473750D01*
Y287568D01*
X474766D01*
Y289600D01*
X473750D01*
Y290616D01*
X471718D01*
Y289600D01*
X470702D01*
Y287568D01*
X471718D01*
X516168Y276138D02*
Y275122D01*
X518200D01*
Y276138D01*
X519216D01*
Y278170D01*
X518200D01*
Y279186D01*
X516168D01*
Y278170D01*
X515152D01*
Y276138D01*
X516168D01*
X395518Y295188D02*
Y294172D01*
X397550D01*
Y295188D01*
X398566D01*
Y297220D01*
X397550D01*
Y298236D01*
X395518D01*
Y297220D01*
X394502D01*
Y295188D01*
X395518D01*
X424728Y296458D02*
Y295442D01*
X426760D01*
Y296458D01*
X427776D01*
Y298490D01*
X426760D01*
Y299506D01*
X424728D01*
Y298490D01*
X423712D01*
Y296458D01*
X424728D01*
X550458Y171490D02*
Y170474D01*
X552490D01*
Y171490D01*
X553506D01*
Y173522D01*
X552490D01*
Y174538D01*
X550458D01*
Y173522D01*
X549442D01*
Y171490D01*
X550458D01*
X140705Y538266D02*
Y537250D01*
X142737D01*
Y538266D01*
X143753D01*
Y540298D01*
X142737D01*
Y541314D01*
X140705D01*
Y540298D01*
X139689D01*
Y538266D01*
X140705D01*
X452414Y358942D02*
Y357926D01*
X454446D01*
Y358942D01*
X455462D01*
Y360974D01*
X454446D01*
Y361990D01*
X452414D01*
Y360974D01*
X451398D01*
Y358942D01*
X452414D01*
X637580Y340908D02*
Y339892D01*
X639612D01*
Y340908D01*
X640628D01*
Y342940D01*
X639612D01*
Y343956D01*
X637580D01*
Y342940D01*
X636564D01*
Y340908D01*
X637580D01*
X405424Y245150D02*
Y244134D01*
X407456D01*
Y245150D01*
X408472D01*
Y247182D01*
X407456D01*
Y248198D01*
X405424D01*
Y247182D01*
X404408D01*
Y245150D01*
X405424D01*
X524550Y224830D02*
Y223814D01*
X526582D01*
Y224830D01*
X527598D01*
Y226862D01*
X526582D01*
Y227878D01*
X524550D01*
Y226862D01*
X523534D01*
Y224830D01*
X524550D01*
X561380Y158536D02*
Y157520D01*
X563412D01*
Y158536D01*
X564428D01*
Y160568D01*
X563412D01*
Y161584D01*
X561380D01*
Y160568D01*
X560364D01*
Y158536D01*
X561380D01*
X196128Y115864D02*
Y114848D01*
X198160D01*
Y115864D01*
X199176D01*
Y117896D01*
X198160D01*
Y118912D01*
X196128D01*
Y117896D01*
X195112D01*
Y115864D01*
X196128D01*
X285536Y372404D02*
Y371388D01*
X287568D01*
Y372404D01*
X288584D01*
Y374436D01*
X287568D01*
Y375452D01*
X285536D01*
Y374436D01*
X284520D01*
Y372404D01*
X285536D01*
X401106Y405424D02*
Y404408D01*
X403138D01*
Y405424D01*
X404154D01*
Y407456D01*
X403138D01*
Y408472D01*
X401106D01*
Y407456D01*
X400090D01*
Y405424D01*
X401106D01*
X434126Y524550D02*
Y523534D01*
X436158D01*
Y524550D01*
X437174D01*
Y526582D01*
X436158D01*
Y527598D01*
X434126D01*
Y526582D01*
X433110D01*
Y524550D01*
X434126D01*
X430824Y106974D02*
Y105958D01*
X432856D01*
Y106974D01*
X433872D01*
Y109006D01*
X432856D01*
Y110022D01*
X430824D01*
Y109006D01*
X429808D01*
Y106974D01*
X430824D01*
X406186Y525820D02*
Y524804D01*
X408218D01*
Y525820D01*
X409234D01*
Y527852D01*
X408218D01*
Y528868D01*
X406186D01*
Y527852D01*
X405170D01*
Y525820D01*
X406186D01*
X166410Y524296D02*
Y523280D01*
X168442D01*
Y524296D01*
X169458D01*
Y526328D01*
X168442D01*
Y527344D01*
X166410D01*
Y526328D01*
X165394D01*
Y524296D01*
X166410D01*
X34584Y379262D02*
Y378246D01*
X36616D01*
Y379262D01*
X37632D01*
Y381294D01*
X36616D01*
Y382310D01*
X34584D01*
Y381294D01*
X33568D01*
Y379262D01*
X34584D01*
X214670Y447080D02*
Y446064D01*
X216702D01*
Y447080D01*
X217718D01*
Y449112D01*
X216702D01*
Y450128D01*
X214670D01*
Y449112D01*
X213654D01*
Y447080D01*
X214670D01*
X193080Y307380D02*
Y306364D01*
X195112D01*
Y307380D01*
X196128D01*
Y309412D01*
X195112D01*
Y310428D01*
X193080D01*
Y309412D01*
X192064D01*
Y307380D01*
X193080D01*
X245912Y326635D02*
Y325619D01*
X247944D01*
Y326635D01*
X248960D01*
Y328667D01*
X247944D01*
Y329683D01*
X245912D01*
Y328667D01*
X244896D01*
Y326635D01*
X245912D01*
X282488Y425744D02*
Y424728D01*
X284520D01*
Y425744D01*
X285536D01*
Y427776D01*
X284520D01*
Y428792D01*
X282488D01*
Y427776D01*
X281472D01*
Y425744D01*
X282488D01*
X374690Y115864D02*
Y114848D01*
X376722D01*
Y115864D01*
X377738D01*
Y117896D01*
X376722D01*
Y118912D01*
X374690D01*
Y117896D01*
X373674D01*
Y115864D01*
X374690D01*
X375706Y161838D02*
Y160822D01*
X377738D01*
Y161838D01*
X378754D01*
Y163870D01*
X377738D01*
Y164886D01*
X375706D01*
Y163870D01*
X374690D01*
Y161838D01*
X375706D01*
X280456Y251500D02*
Y250484D01*
X282488D01*
Y251500D01*
X283504D01*
Y253532D01*
X282488D01*
Y254548D01*
X280456D01*
Y253532D01*
X279440D01*
Y251500D01*
X280456D01*
X434888Y359958D02*
Y358942D01*
X436920D01*
Y359958D01*
X437936D01*
Y361990D01*
X436920D01*
Y363006D01*
X434888D01*
Y361990D01*
X433872D01*
Y359958D01*
X434888D01*
X595670Y229656D02*
Y228640D01*
X597702D01*
Y229656D01*
X598718D01*
Y231688D01*
X597702D01*
Y232704D01*
X595670D01*
Y231688D01*
X594654D01*
Y229656D01*
X595670D01*
Y307126D02*
Y306110D01*
X597702D01*
Y307126D01*
X598718D01*
Y309158D01*
X597702D01*
Y310174D01*
X595670D01*
Y309158D01*
X594654D01*
Y307126D01*
X595670D01*
X443270Y253786D02*
Y252770D01*
X445302D01*
Y253786D01*
X446318D01*
Y255818D01*
X445302D01*
Y256834D01*
X443270D01*
Y255818D01*
X442254D01*
Y253786D01*
X443270D01*
X313222Y527090D02*
Y526074D01*
X315254D01*
Y527090D01*
X316270D01*
Y529122D01*
X315254D01*
Y530138D01*
X313222D01*
Y529122D01*
X312206D01*
Y527090D01*
X313222D01*
X34584Y411266D02*
Y410250D01*
X36616D01*
Y411266D01*
X37632D01*
Y413298D01*
X36616D01*
Y414314D01*
X34584D01*
Y413298D01*
X33568D01*
Y411266D01*
X34584D01*
X421680Y334304D02*
Y333288D01*
X423712D01*
Y334304D01*
X424728D01*
Y336336D01*
X423712D01*
Y337352D01*
X421680D01*
Y336336D01*
X420664D01*
Y334304D01*
X421680D01*
D61*
X74519Y202182D02*
G03*
X74519Y202182I-2032J0D01*
G01*
X55385Y248376D02*
G03*
X55385Y248376I-2032J0D01*
G01*
X480018Y72487D02*
G03*
X480018Y72487I-2032J0D01*
G01*
X433824Y53353D02*
G03*
X433824Y53353I-2032J0D01*
G01*
X250408Y626815D02*
G03*
X250408Y626815I-2032J0D01*
G01*
X204214Y607681D02*
G03*
X204214Y607681I-2032J0D01*
G01*
X74519Y477986D02*
G03*
X74519Y477986I-2032J0D01*
G01*
X55385Y431792D02*
G03*
X55385Y431792I-2032J0D01*
G01*
X204214Y72487D02*
G03*
X204214Y72487I-2032J0D01*
G01*
X250408Y53353D02*
G03*
X250408Y53353I-2032J0D01*
G01*
X609713Y202182D02*
G03*
X609713Y202182I-2032J0D01*
G01*
X628847Y248376D02*
G03*
X628847Y248376I-2032J0D01*
G01*
Y431792D02*
G03*
X628847Y431792I-2032J0D01*
G01*
X609713Y477986D02*
G03*
X609713Y477986I-2032J0D01*
G01*
X480018Y607681D02*
G03*
X480018Y607681I-2032J0D01*
G01*
X433824Y626815D02*
G03*
X433824Y626815I-2032J0D01*
G01*
M02*
