G04*
G04 #@! TF.GenerationSoftware,Altium Limited,CircuitMaker,2.1.0 (2.1.0.4)*
G04*
G04 Layer_Color=8150272*
%FSLAX44Y44*%
%MOMM*%
G71*
G04*
G04 #@! TF.SameCoordinates,92338436-DD38-40F9-96A6-762CB33EEFC5*
G04*
G04*
G04 #@! TF.FilePolarity,Negative*
G04*
G01*
G75*
%ADD29C,1.7272*%
G04:AMPARAMS|DCode=30|XSize=3.2032mm|YSize=2.7032mm|CornerRadius=0.7266mm|HoleSize=0mm|Usage=FLASHONLY|Rotation=112.500|XOffset=0mm|YOffset=0mm|HoleType=Round|Shape=RoundedRectangle|*
%AMROUNDEDRECTD30*
21,1,3.2032,1.2500,0,0,112.5*
21,1,1.7500,2.7032,0,0,112.5*
1,1,1.4532,0.2426,1.0476*
1,1,1.4532,0.9123,-0.5692*
1,1,1.4532,-0.2426,-1.0476*
1,1,1.4532,-0.9123,0.5692*
%
%ADD30ROUNDEDRECTD30*%
%ADD31C,1.7032*%
%ADD32R,1.7032X1.7032*%
%ADD33O,2.7432X1.8032*%
%ADD34C,2.8194*%
G04:AMPARAMS|DCode=35|XSize=2.7432mm|YSize=1.8032mm|CornerRadius=0.5016mm|HoleSize=0mm|Usage=FLASHONLY|Rotation=180.000|XOffset=0mm|YOffset=0mm|HoleType=Round|Shape=RoundedRectangle|*
%AMROUNDEDRECTD35*
21,1,2.7432,0.8000,0,0,180.0*
21,1,1.7400,1.8032,0,0,180.0*
1,1,1.0032,-0.8700,0.4000*
1,1,1.0032,0.8700,0.4000*
1,1,1.0032,0.8700,-0.4000*
1,1,1.0032,-0.8700,-0.4000*
%
%ADD35ROUNDEDRECTD35*%
G04:AMPARAMS|DCode=36|XSize=3.2032mm|YSize=2.7032mm|CornerRadius=0.7266mm|HoleSize=0mm|Usage=FLASHONLY|Rotation=202.500|XOffset=0mm|YOffset=0mm|HoleType=Round|Shape=RoundedRectangle|*
%AMROUNDEDRECTD36*
21,1,3.2032,1.2500,0,0,202.5*
21,1,1.7500,2.7032,0,0,202.5*
1,1,1.4532,-1.0476,0.2426*
1,1,1.4532,0.5692,0.9123*
1,1,1.4532,1.0476,-0.2426*
1,1,1.4532,-0.5692,-0.9123*
%
%ADD36ROUNDEDRECTD36*%
G04:AMPARAMS|DCode=37|XSize=3.2032mm|YSize=2.7032mm|CornerRadius=0.7266mm|HoleSize=0mm|Usage=FLASHONLY|Rotation=67.500|XOffset=0mm|YOffset=0mm|HoleType=Round|Shape=RoundedRectangle|*
%AMROUNDEDRECTD37*
21,1,3.2032,1.2500,0,0,67.5*
21,1,1.7500,2.7032,0,0,67.5*
1,1,1.4532,0.9123,0.5692*
1,1,1.4532,0.2426,-1.0476*
1,1,1.4532,-0.9123,-0.5692*
1,1,1.4532,-0.2426,1.0476*
%
%ADD37ROUNDEDRECTD37*%
G04:AMPARAMS|DCode=38|XSize=3.2032mm|YSize=2.7032mm|CornerRadius=0.7266mm|HoleSize=0mm|Usage=FLASHONLY|Rotation=157.500|XOffset=0mm|YOffset=0mm|HoleType=Round|Shape=RoundedRectangle|*
%AMROUNDEDRECTD38*
21,1,3.2032,1.2500,0,0,157.5*
21,1,1.7500,2.7032,0,0,157.5*
1,1,1.4532,-0.5692,0.9123*
1,1,1.4532,1.0476,0.2426*
1,1,1.4532,0.5692,-0.9123*
1,1,1.4532,-1.0476,-0.2426*
%
%ADD38ROUNDEDRECTD38*%
%ADD39R,1.7272X1.7272*%
%ADD40C,1.4732*%
D29*
X557824Y433364D02*
D03*
Y407964D02*
D03*
X155234Y347004D02*
D03*
X247944Y551474D02*
D03*
X155234Y296204D02*
D03*
X307634Y347004D02*
D03*
Y321604D02*
D03*
Y296204D02*
D03*
Y270804D02*
D03*
Y245404D02*
D03*
Y220004D02*
D03*
Y194604D02*
D03*
Y169204D02*
D03*
X155234D02*
D03*
Y194604D02*
D03*
Y220004D02*
D03*
Y245404D02*
D03*
Y270804D02*
D03*
Y321604D02*
D03*
X311444Y552744D02*
D03*
D30*
X72487Y202182D02*
D03*
X53353Y248376D02*
D03*
X626815Y431792D02*
D03*
X607681Y477986D02*
D03*
D31*
X119674Y347004D02*
D03*
Y372404D02*
D03*
D32*
Y321604D02*
D03*
D33*
X342624Y155674D02*
D03*
X495024Y231874D02*
D03*
Y181074D02*
D03*
Y206474D02*
D03*
Y257274D02*
D03*
Y282674D02*
D03*
Y308074D02*
D03*
Y333474D02*
D03*
Y358874D02*
D03*
Y384274D02*
D03*
Y409674D02*
D03*
Y435074D02*
D03*
Y460474D02*
D03*
Y485874D02*
D03*
Y511274D02*
D03*
X342624D02*
D03*
Y485874D02*
D03*
Y460474D02*
D03*
Y435074D02*
D03*
Y409674D02*
D03*
Y384274D02*
D03*
Y358874D02*
D03*
Y333474D02*
D03*
Y308074D02*
D03*
Y282674D02*
D03*
Y257274D02*
D03*
Y231874D02*
D03*
Y206474D02*
D03*
Y181074D02*
D03*
D34*
X247944Y486704D02*
D03*
X200954D02*
D03*
X294934D02*
D03*
Y406694D02*
D03*
X247944D02*
D03*
X200954D02*
D03*
D35*
X495024Y155674D02*
D03*
D36*
X477986Y72487D02*
D03*
X431792Y53353D02*
D03*
X248376Y626815D02*
D03*
X202182Y607681D02*
D03*
D37*
X72487Y477986D02*
D03*
X53353Y431792D02*
D03*
X607681Y202182D02*
D03*
X626815Y248376D02*
D03*
D38*
X202182Y72487D02*
D03*
X248376Y53353D02*
D03*
X477986Y607681D02*
D03*
X431792Y626815D02*
D03*
D39*
X286044Y552744D02*
D03*
X222544Y551474D02*
D03*
D40*
X443524Y301284D02*
D03*
X472734Y288584D02*
D03*
X517184Y277154D02*
D03*
X396534Y296204D02*
D03*
X425744Y297474D02*
D03*
X551474Y172506D02*
D03*
X141721Y539282D02*
D03*
X453430Y359958D02*
D03*
X638596Y341924D02*
D03*
X406440Y246166D02*
D03*
X525566Y225846D02*
D03*
X562396Y159552D02*
D03*
X197144Y116880D02*
D03*
X286552Y373420D02*
D03*
X402122Y406440D02*
D03*
X435142Y525566D02*
D03*
X431840Y107990D02*
D03*
X407202Y526836D02*
D03*
X167426Y525312D02*
D03*
X35600Y380278D02*
D03*
X215686Y448096D02*
D03*
X194096Y308396D02*
D03*
X246928Y327651D02*
D03*
X283504Y426760D02*
D03*
X375706Y116880D02*
D03*
X376722Y162854D02*
D03*
X281472Y252516D02*
D03*
X435904Y360974D02*
D03*
X596686Y230672D02*
D03*
Y308142D02*
D03*
X444286Y254802D02*
D03*
X314238Y528106D02*
D03*
X35600Y412282D02*
D03*
X422696Y335320D02*
D03*
M02*
