G04*
G04 #@! TF.GenerationSoftware,Altium Limited,CircuitMaker,2.1.0 (2.1.0.4)*
G04*
G04 Layer_Physical_Order=2*
G04 Layer_Color=11436288*
%FSLAX44Y44*%
%MOMM*%
G71*
G04*
G04 #@! TF.SameCoordinates,92338436-DD38-40F9-96A6-762CB33EEFC5*
G04*
G04*
G04 #@! TF.FilePolarity,Positive*
G04*
G01*
G75*
%ADD11C,0.4000*%
%ADD46C,1.5240*%
G04:AMPARAMS|DCode=47|XSize=3mm|YSize=2.5mm|CornerRadius=0.625mm|HoleSize=0mm|Usage=FLASHONLY|Rotation=112.500|XOffset=0mm|YOffset=0mm|HoleType=Round|Shape=RoundedRectangle|*
%AMROUNDEDRECTD47*
21,1,3.0000,1.2500,0,0,112.5*
21,1,1.7500,2.5000,0,0,112.5*
1,1,1.2500,0.2426,1.0476*
1,1,1.2500,0.9123,-0.5692*
1,1,1.2500,-0.2426,-1.0476*
1,1,1.2500,-0.9123,0.5692*
%
%ADD47ROUNDEDRECTD47*%
%ADD48C,1.5000*%
%ADD49R,1.5000X1.5000*%
%ADD50O,2.5400X1.6000*%
%ADD51C,2.6162*%
G04:AMPARAMS|DCode=52|XSize=2.54mm|YSize=1.6mm|CornerRadius=0.4mm|HoleSize=0mm|Usage=FLASHONLY|Rotation=180.000|XOffset=0mm|YOffset=0mm|HoleType=Round|Shape=RoundedRectangle|*
%AMROUNDEDRECTD52*
21,1,2.5400,0.8000,0,0,180.0*
21,1,1.7400,1.6000,0,0,180.0*
1,1,0.8000,-0.8700,0.4000*
1,1,0.8000,0.8700,0.4000*
1,1,0.8000,0.8700,-0.4000*
1,1,0.8000,-0.8700,-0.4000*
%
%ADD52ROUNDEDRECTD52*%
G04:AMPARAMS|DCode=53|XSize=3mm|YSize=2.5mm|CornerRadius=0.625mm|HoleSize=0mm|Usage=FLASHONLY|Rotation=202.500|XOffset=0mm|YOffset=0mm|HoleType=Round|Shape=RoundedRectangle|*
%AMROUNDEDRECTD53*
21,1,3.0000,1.2500,0,0,202.5*
21,1,1.7500,2.5000,0,0,202.5*
1,1,1.2500,-1.0476,0.2426*
1,1,1.2500,0.5692,0.9123*
1,1,1.2500,1.0476,-0.2426*
1,1,1.2500,-0.5692,-0.9123*
%
%ADD53ROUNDEDRECTD53*%
G04:AMPARAMS|DCode=54|XSize=3mm|YSize=2.5mm|CornerRadius=0.625mm|HoleSize=0mm|Usage=FLASHONLY|Rotation=67.500|XOffset=0mm|YOffset=0mm|HoleType=Round|Shape=RoundedRectangle|*
%AMROUNDEDRECTD54*
21,1,3.0000,1.2500,0,0,67.5*
21,1,1.7500,2.5000,0,0,67.5*
1,1,1.2500,0.9123,0.5692*
1,1,1.2500,0.2426,-1.0476*
1,1,1.2500,-0.9123,-0.5692*
1,1,1.2500,-0.2426,1.0476*
%
%ADD54ROUNDEDRECTD54*%
G04:AMPARAMS|DCode=55|XSize=3mm|YSize=2.5mm|CornerRadius=0.625mm|HoleSize=0mm|Usage=FLASHONLY|Rotation=157.500|XOffset=0mm|YOffset=0mm|HoleType=Round|Shape=RoundedRectangle|*
%AMROUNDEDRECTD55*
21,1,3.0000,1.2500,0,0,157.5*
21,1,1.7500,2.5000,0,0,157.5*
1,1,1.2500,-0.5692,0.9123*
1,1,1.2500,1.0476,0.2426*
1,1,1.2500,0.5692,-0.9123*
1,1,1.2500,-1.0476,-0.2426*
%
%ADD55ROUNDEDRECTD55*%
%ADD56R,1.5240X1.5240*%
%ADD57C,1.2700*%
D11*
X359958Y295442D02*
X378150Y313634D01*
X509564Y346242D02*
X517184Y338622D01*
X326474Y320842D02*
X405795D01*
X401045Y307094D02*
X408157Y299982D01*
X427808D01*
X385644Y290834D02*
Y300715D01*
X377484Y282674D02*
X385644Y290834D01*
X405795Y320842D02*
X408747Y317890D01*
X470734Y286584D02*
X472734Y288584D01*
X406154Y286584D02*
X470734D01*
X396534Y296204D02*
X406154Y286584D01*
X378150Y313634D02*
X403754D01*
X435632Y309176D02*
X443524Y301284D01*
X408212Y309176D02*
X435632D01*
X517184Y277154D02*
Y338622D01*
X408747Y317890D02*
X490260D01*
X403754Y313634D02*
X408212Y309176D01*
X392023Y307094D02*
X401045D01*
X385644Y300715D02*
X392023Y307094D01*
X425744Y297474D02*
Y297918D01*
X427808Y299982D01*
X411806Y324430D02*
X444730D01*
X411806D02*
Y332577D01*
X92400Y470430D02*
Y488148D01*
Y470430D02*
X92746Y470084D01*
X90084Y490464D02*
Y507660D01*
Y490464D02*
X92400Y488148D01*
X90084Y507660D02*
X151170Y568746D01*
X79383Y456721D02*
X92746Y470084D01*
X63679Y456721D02*
X79383D01*
X60315Y460084D02*
X63679Y456721D01*
X46572Y460084D02*
X60315D01*
X24678Y438190D02*
X46572Y460084D01*
X40079Y391200D02*
X46522Y384757D01*
Y379770D02*
Y384757D01*
X24678Y391200D02*
X40079D01*
X40184Y400344D02*
X46984Y393544D01*
X24678Y400344D02*
X40184D01*
X37495Y412282D02*
X49693Y400084D01*
X35600Y412282D02*
X37495D01*
X46984Y393544D02*
X151079D01*
X49693Y400084D02*
X148370D01*
X157879Y400344D02*
X176824D01*
X151079Y393544D02*
X157879Y400344D01*
X148370Y400084D02*
X224322Y476036D01*
X23544Y233584D02*
X50586Y206542D01*
X23544Y233584D02*
Y261139D01*
X24678Y262273D02*
Y391200D01*
X23544Y261139D02*
X24678Y262273D01*
X30084Y258430D02*
X93258Y321604D01*
X30084Y236293D02*
Y258430D01*
Y236293D02*
X46293Y220084D01*
X82746D02*
X104100D01*
X79383Y223447D02*
X82746Y220084D01*
X63679Y223447D02*
X79383D01*
X60315Y220084D02*
X63679Y223447D01*
X46293Y220084D02*
X60315D01*
X104100D02*
X117388Y206796D01*
X488515Y50084D02*
X507786Y69355D01*
X435061Y50084D02*
X488515D01*
X431792Y53353D02*
X435061Y50084D01*
X463786Y650084D02*
X630084Y483786D01*
Y435061D02*
Y483786D01*
X626815Y431792D02*
X630084Y435061D01*
X600084Y470390D02*
X607681Y477986D01*
X600084Y423616D02*
Y470390D01*
Y423616D02*
X656026Y367674D01*
X382506Y650084D02*
X463786D01*
X379516Y653074D02*
X382506Y650084D01*
X301643Y653074D02*
X379516D01*
X298093Y656624D02*
X301643Y653074D01*
X234879Y656624D02*
X298093D01*
X231329Y653074D02*
X234879Y656624D01*
X225338Y653074D02*
X231329D01*
X295384Y650084D02*
X317696Y627771D01*
X237588Y650084D02*
X295384D01*
X225338Y637834D02*
X237588Y650084D01*
X203050Y122786D02*
X525630D01*
X490260Y308074D02*
Y317890D01*
X494832Y401868D02*
X502452D01*
X494832D02*
Y409674D01*
X386120Y422442D02*
X515914D01*
X371134D02*
X386120D01*
X551474Y159806D02*
Y172506D01*
X520994Y129326D02*
X551474Y159806D01*
X244896Y129326D02*
X520994D01*
X167426Y206796D02*
X244896Y129326D01*
X117388Y206796D02*
X167426D01*
X93258Y321604D02*
X119674D01*
X235752Y539282D02*
X247944Y551474D01*
X141721Y539282D02*
X235752D01*
X453430Y359958D02*
X466130D01*
X477814Y371642D01*
X608878D01*
X638596Y341924D01*
X406440Y246166D02*
X416346Y236260D01*
X469432D01*
X477814Y244642D01*
X506770D01*
X525566Y225846D01*
X525630Y122786D02*
X562396Y159552D01*
X197144Y116880D02*
X203050Y122786D01*
X307634Y288838D02*
Y296204D01*
Y288838D02*
X328462Y270042D01*
X465046D01*
X477814Y257274D01*
X495024D01*
X462388Y384274D02*
X495024D01*
X451144Y395518D02*
X462388Y384274D01*
X382056Y395518D02*
X451144D01*
X355132Y422442D02*
X382056Y395518D01*
X322366Y422442D02*
X355132D01*
X315508Y415584D02*
X322366Y422442D01*
X315508Y396534D02*
Y415584D01*
X292394Y373420D02*
X315508Y396534D01*
X286552Y373420D02*
X292394D01*
X358502Y435074D02*
X371134Y422442D01*
X386120D02*
X402122Y406440D01*
X342624Y435074D02*
X358502D01*
X515914Y422442D02*
X542584Y395772D01*
X562904D01*
X570016Y402884D01*
Y460288D01*
X504738Y525566D02*
X570016Y460288D01*
X435142Y525566D02*
X504738D01*
X391652Y107990D02*
X431840D01*
X386694Y103032D02*
X391652Y107990D01*
X129458Y103032D02*
X386694D01*
X50586Y181904D02*
X129458Y103032D01*
X50586Y181904D02*
Y206542D01*
X46522Y379770D02*
X66588Y359704D01*
X176062D01*
X220004Y315762D01*
X250484D01*
X293918Y359196D01*
X333220D01*
X342624Y358874D01*
X337288Y526836D02*
X407202D01*
X325128Y538996D02*
X337288Y526836D01*
X303348Y538996D02*
X325128D01*
X289664Y525312D02*
X303348Y538996D01*
X167426Y525312D02*
X289664D01*
X143042Y258612D02*
X155234Y270804D01*
X143042Y232958D02*
Y258612D01*
Y232958D02*
X174869D01*
X271897Y135930D01*
X512165D01*
X539390Y163155D01*
Y183478D01*
X569600D01*
X588304Y202182D01*
X607681D01*
X507786Y69355D02*
Y83860D01*
X533632Y109706D01*
X570371D01*
X583167Y122502D01*
Y159241D01*
X604814Y180888D01*
X618784D01*
X631992Y194096D01*
Y206288D01*
X651550Y225846D01*
Y320018D01*
X656026Y324494D01*
Y367674D01*
X325414Y295442D02*
X359958D01*
X325414D02*
Y306110D01*
X322620Y308904D02*
X325414Y306110D01*
X215723Y308904D02*
X322620D01*
X190577Y334050D02*
X215723Y308904D01*
X81828Y334050D02*
X190577D01*
X35600Y380278D02*
X81828Y334050D01*
X53353Y248376D02*
X109252D01*
X137624Y220004D01*
X155234D01*
X391522Y435074D02*
X495024D01*
X353354Y473242D02*
X391522Y435074D01*
X326684Y473242D02*
X353354D01*
X314492Y485434D02*
X326684Y473242D01*
X314492Y485434D02*
Y493562D01*
X303729Y504325D02*
X314492Y493562D01*
X284107Y504325D02*
X303729D01*
X265724Y485942D02*
X284107Y504325D01*
X265724Y466892D02*
Y485942D01*
X246928Y448096D02*
X265724Y466892D01*
X215686Y448096D02*
X246928D01*
X194096Y308396D02*
X231688Y270804D01*
X307634D01*
X246928Y327651D02*
X275630Y356353D01*
Y418886D01*
X283504Y426760D01*
X295442Y568746D02*
X311444Y552744D01*
X151170Y568746D02*
X295442D01*
X24678Y400344D02*
Y438190D01*
X176824Y400344D02*
X183174Y406694D01*
X200954D01*
X145074Y296204D02*
X155234D01*
X119674Y321604D02*
X145074Y296204D01*
X197144Y116880D02*
X375706D01*
X72487Y477986D02*
Y534303D01*
X122932Y584748D01*
X212384D01*
X225338Y597702D01*
Y637834D01*
X317696Y627771D02*
X429482D01*
X431792Y626815D01*
X376722Y162854D02*
Y225084D01*
X369932Y231874D02*
X376722Y225084D01*
X342624Y231874D02*
X369932D01*
X155234Y321604D02*
X224322Y252516D01*
X281472D01*
X412604Y384274D02*
X435904Y360974D01*
X342624Y384274D02*
X412604D01*
X295442Y182412D02*
X307634Y194604D01*
X295442Y148376D02*
Y182412D01*
Y148376D02*
X301030Y142788D01*
X508802D01*
X530758Y164744D01*
Y192110D01*
X558124D01*
X596686Y230672D01*
X545954Y358874D02*
X596686Y308142D01*
X495024Y358874D02*
X545954D01*
X155234Y245404D02*
X188762D01*
X226354Y207812D01*
X311698D01*
X319826Y199684D01*
Y175300D02*
Y199684D01*
Y175300D02*
X326684Y168442D01*
X353100D01*
X369610Y151932D01*
X387644D01*
Y161584D01*
X394502Y168442D01*
X512358D01*
Y189478D01*
X522874Y199994D01*
X532048D01*
X580430Y248376D01*
X626815D01*
X248376Y53353D02*
X315227D01*
X358180Y96306D01*
X501805D01*
X521745Y116246D01*
X561944D01*
X575683Y129985D01*
Y170184D01*
X607681Y202182D01*
X494832Y409674D02*
X495024D01*
X502452Y401868D02*
X519216Y385104D01*
X612180D01*
X649486Y347798D01*
Y327860D02*
Y347798D01*
X536553Y214928D02*
X649486Y327860D01*
X519088Y214928D02*
X536553D01*
X514773Y219242D02*
X519088Y214928D01*
X415584Y219242D02*
X514773D01*
X390184Y244642D02*
X415584Y219242D01*
X332272Y244642D02*
X390184D01*
X307634Y220004D02*
X332272Y244642D01*
X441814Y257274D02*
X444286Y254802D01*
X342624Y257274D02*
X441814D01*
X424474Y346242D02*
X509564D01*
X399074Y371642D02*
X424474Y346242D01*
X325160Y371642D02*
X399074D01*
X325160D02*
Y409674D01*
X342624D01*
X314238Y524009D02*
Y528106D01*
X307634Y517405D02*
X314238Y524009D01*
X252483Y517405D02*
X307634D01*
X224322Y489244D02*
X252483Y517405D01*
X224322Y476036D02*
Y489244D01*
X528868Y436920D02*
X557824Y407964D01*
X528868Y436920D02*
Y479084D01*
X509310Y498642D02*
X528868Y479084D01*
X324144Y498642D02*
X509310D01*
X311921Y510865D02*
X324144Y498642D01*
X272105Y510865D02*
X311921D01*
X247944Y486704D02*
X272105Y510865D01*
X248376Y626815D02*
X300111D01*
X389200Y537726D01*
X508072D01*
X567812Y477986D01*
X607681D01*
X342624Y282674D02*
X377484D01*
X399142Y358874D02*
X422696Y335320D01*
X342624Y358874D02*
X399142D01*
X453774Y333474D02*
X495024D01*
X444730Y324430D02*
X453774Y333474D01*
X398141Y346242D02*
X411806Y332577D01*
X308396Y346242D02*
X398141D01*
X307634Y347004D02*
X308396Y346242D01*
X490260Y308074D02*
X495024D01*
X325712Y321604D02*
X326474Y320842D01*
X307634Y321604D02*
X325712D01*
X202182Y629918D02*
X225338Y653074D01*
X202182Y607681D02*
Y629918D01*
X119674Y372404D02*
X248452D01*
X265724Y389676D01*
Y457494D01*
X294934Y486704D01*
X117600Y194604D02*
X155234D01*
X110022Y202182D02*
X117600Y194604D01*
X72487Y202182D02*
X110022D01*
X119674Y347004D02*
X155234D01*
D46*
X557824Y433364D02*
D03*
Y407964D02*
D03*
X155234Y347004D02*
D03*
X247944Y551474D02*
D03*
X155234Y296204D02*
D03*
X307634Y347004D02*
D03*
Y321604D02*
D03*
Y296204D02*
D03*
Y270804D02*
D03*
Y245404D02*
D03*
Y220004D02*
D03*
Y194604D02*
D03*
Y169204D02*
D03*
X155234D02*
D03*
Y194604D02*
D03*
Y220004D02*
D03*
Y245404D02*
D03*
Y270804D02*
D03*
Y321604D02*
D03*
X311444Y552744D02*
D03*
D47*
X72487Y202182D02*
D03*
X53353Y248376D02*
D03*
X626815Y431792D02*
D03*
X607681Y477986D02*
D03*
D48*
X119674Y347004D02*
D03*
Y372404D02*
D03*
D49*
Y321604D02*
D03*
D50*
X342624Y155674D02*
D03*
X495024Y231874D02*
D03*
Y181074D02*
D03*
Y206474D02*
D03*
Y257274D02*
D03*
Y282674D02*
D03*
Y308074D02*
D03*
Y333474D02*
D03*
Y358874D02*
D03*
Y384274D02*
D03*
Y409674D02*
D03*
Y435074D02*
D03*
Y460474D02*
D03*
Y485874D02*
D03*
Y511274D02*
D03*
X342624D02*
D03*
Y485874D02*
D03*
Y460474D02*
D03*
Y435074D02*
D03*
Y409674D02*
D03*
Y384274D02*
D03*
Y358874D02*
D03*
Y333474D02*
D03*
Y308074D02*
D03*
Y282674D02*
D03*
Y257274D02*
D03*
Y231874D02*
D03*
Y206474D02*
D03*
Y181074D02*
D03*
D51*
X247944Y486704D02*
D03*
X200954D02*
D03*
X294934D02*
D03*
Y406694D02*
D03*
X247944D02*
D03*
X200954D02*
D03*
D52*
X495024Y155674D02*
D03*
D53*
X477986Y72487D02*
D03*
X431792Y53353D02*
D03*
X248376Y626815D02*
D03*
X202182Y607681D02*
D03*
D54*
X72487Y477986D02*
D03*
X53353Y431792D02*
D03*
X607681Y202182D02*
D03*
X626815Y248376D02*
D03*
D55*
X202182Y72487D02*
D03*
X248376Y53353D02*
D03*
X477986Y607681D02*
D03*
X431792Y626815D02*
D03*
D56*
X286044Y552744D02*
D03*
X222544Y551474D02*
D03*
D57*
X443524Y301284D02*
D03*
X472734Y288584D02*
D03*
X517184Y277154D02*
D03*
X396534Y296204D02*
D03*
X425744Y297474D02*
D03*
X551474Y172506D02*
D03*
X141721Y539282D02*
D03*
X453430Y359958D02*
D03*
X638596Y341924D02*
D03*
X406440Y246166D02*
D03*
X525566Y225846D02*
D03*
X562396Y159552D02*
D03*
X197144Y116880D02*
D03*
X286552Y373420D02*
D03*
X402122Y406440D02*
D03*
X435142Y525566D02*
D03*
X431840Y107990D02*
D03*
X407202Y526836D02*
D03*
X167426Y525312D02*
D03*
X35600Y380278D02*
D03*
X215686Y448096D02*
D03*
X194096Y308396D02*
D03*
X246928Y327651D02*
D03*
X283504Y426760D02*
D03*
X375706Y116880D02*
D03*
X376722Y162854D02*
D03*
X281472Y252516D02*
D03*
X435904Y360974D02*
D03*
X596686Y230672D02*
D03*
Y308142D02*
D03*
X444286Y254802D02*
D03*
X314238Y528106D02*
D03*
X35600Y412282D02*
D03*
X422696Y335320D02*
D03*
M02*
