G04*
G04 #@! TF.GenerationSoftware,Altium Limited,CircuitMaker,2.1.0 (2.1.0.4)*
G04*
G04 Layer_Color=15138737*
%FSLAX44Y44*%
%MOMM*%
G71*
G04*
G04 #@! TF.SameCoordinates,92338436-DD38-40F9-96A6-762CB33EEFC5*
G04*
G04*
G04 #@! TF.FilePolarity,Positive*
G04*
G01*
G75*
%ADD58C,0.1000*%
D58*
X415934Y197604D02*
G03*
X415934Y197604I-5000J0D01*
G01*
X546824Y285204D02*
G03*
X546824Y285204I-5000J0D01*
G01*
X412124Y504944D02*
G03*
X412124Y504944I-5000J0D01*
G01*
X401934Y119104D02*
X441934D01*
X401934Y206604D02*
X441934D01*
Y119104D02*
Y206604D01*
X401934Y119104D02*
Y206604D01*
X532824Y276204D02*
X582824D01*
X532824Y316204D02*
X582824D01*
X532824Y276204D02*
Y316204D01*
X582824Y276204D02*
Y316204D01*
X398124Y426444D02*
Y513944D01*
X438124Y426444D02*
Y513944D01*
X398124D02*
X438124D01*
X398124Y426444D02*
X438124D01*
X393994Y226354D02*
Y231434D01*
X404154Y226354D02*
Y231434D01*
X393994D02*
X404154D01*
X393994Y226354D02*
X404154D01*
X391454Y326684D02*
Y331764D01*
X401614Y326684D02*
Y331764D01*
X391454D02*
X401614D01*
X391454Y326684D02*
X401614D01*
X392724Y378754D02*
Y383834D01*
X402884Y378754D02*
Y383834D01*
X392724D02*
X402884D01*
X392724Y378754D02*
X402884D01*
X392724Y275884D02*
Y280964D01*
X402884Y275884D02*
Y280964D01*
X392724D02*
X402884D01*
X392724Y275884D02*
X402884D01*
X437174Y227624D02*
Y232704D01*
X447334Y227624D02*
Y232704D01*
X437174D02*
X447334D01*
X437174Y227624D02*
X447334D01*
X434634Y325414D02*
Y330494D01*
X444794Y325414D02*
Y330494D01*
X434634D02*
X444794D01*
X434634Y325414D02*
X444794D01*
X435904Y377484D02*
Y382564D01*
X446064Y377484D02*
Y382564D01*
X435904D02*
X446064D01*
X435904Y377484D02*
X446064D01*
X434634Y277154D02*
Y282234D01*
X444794Y277154D02*
Y282234D01*
X434634D02*
X444794D01*
X434634Y277154D02*
X444794D01*
M02*
