M48
;Layer_Color=6321
;FILE_FORMAT=4:4
METRIC,LZ
;TYPE=PLATED
T5F00S00C1.5240
%
G90
G05
T05
G00X00433991Y00054264
M15
G01X00429593Y00052442
M16
G00X00480185Y00073398
M15
G01X00475787Y00071577
M16
G00X00608591Y00204381
M15
G01X0060677Y00199983
M16
G00X00627726Y00250575
M15
G01X00625904Y00246177
M16
G00X00250575Y00052442
M15
G01X00246177Y00054264
M16
G00X00204381Y00071577
M15
G01X00199983Y00073398
M16
G00X00073398Y00199983
M15
G01X00071577Y00204381
M16
G00X00054264Y00246177
M15
G01X00052442Y00250575
M16
G00X00052442Y00429593
M15
G01X00054264Y00433991
M16
G00X00071577Y00475787
M15
G01X00073398Y00480185
M16
G00X00199983Y0060677
M15
G01X00204381Y00608591
M16
G00X00246177Y00625904
M15
G01X00250575Y00627726
M16
G00X00429593Y00627726
M15
G01X00433991Y00625904
M16
G00X00475787Y00608591
M15
G01X00480185Y0060677
M16
G00X0060677Y00480185
M15
G01X00608591Y00475787
M16
G00X00625904Y00433991
M15
G01X00627726Y00429593
M16
M30
