M48
;Layer_Color=6321
;FILE_FORMAT=4:4
METRIC,LZ
;TYPE=PLATED
T1F00S00C0.7112
T2F00S00C0.7620
T3F00S00C0.9000
T4F00S00C1.0000
T6F00S00C1.8542
%
T01
X0043184Y0010799
X00444286Y00254802
X0040644Y00246166
X00396534Y00296204
X00425744Y00297474
X00443524Y00301284
X00472734Y00288584
X00517184Y00277154
X00525566Y00225846
X00596686Y00230672
Y00308142
X00638596Y00341924
X0045343Y00359958
X00435904Y00360974
X00422696Y0033532
X00551474Y00172506
X00562396Y00159552
X00376722Y00162854
X00375706Y0011688
X00197144
X00194096Y00308396
X00246928Y00327651
X00286552Y0037342
X00281472Y00252516
X000356Y00380278
Y00412282
X00215686Y00448096
X00283504Y0042676
X00314238Y00528106
X00167426Y00525312
X00141721Y00539282
X00407202Y00526836
X00435142Y00525566
X00402122Y0040644
T02
X00155234Y00169204
Y00194604
Y00220004
Y00245404
Y00270804
Y00296204
Y00321604
Y00347004
X00307634
Y00321604
Y00296204
Y00270804
Y00245404
Y00220004
Y00194604
Y00169204
T03
X00119674Y00321604
Y00347004
Y00372404
T04
X00495024Y00155674
Y00181074
Y00206474
Y00231874
Y00257274
Y00282674
Y00308074
Y00333474
Y00358874
X00342624
Y00333474
Y00308074
Y00282674
Y00257274
Y00231874
Y00206474
Y00181074
Y00155674
Y00384274
Y00409674
Y00435074
Y00460474
Y00485874
Y00511274
X00311444Y00552744
X00286044
X00247944Y00551474
X00222544
X00495024Y00511274
Y00485874
Y00460474
Y00435074
Y00409674
Y00384274
X00557824Y00407964
Y00433364
T06
X00200954Y00406694
X00247944
X00294934
Y00486704
X00247944
X00200954
M30
